HIERARCHY
ROOT Hips
{
  OFFSET -35.4901 99.2528 17.4586
  CHANNELS 6 Xposition Yposition Zposition Zrotation Xrotation Yrotation
  JOINT LeftUpLeg
  {
    OFFSET 8.64259 1.95398 -2.38835
    CHANNELS 3 Zrotation Xrotation Yrotation
    JOINT LeftLeg
    {
      OFFSET 43.7702 0 0
      CHANNELS 3 Zrotation Xrotation Yrotation
      JOINT LeftFoot
      {
        OFFSET 40.6238 0 0
        CHANNELS 3 Zrotation Xrotation Yrotation
        JOINT LeftToeBase
        {
          OFFSET 12.7242 0 0
          CHANNELS 3 Zrotation Xrotation Yrotation
          End Site
          {
            OFFSET 0 0 0
          }
        }
      }
    }
  }
  JOINT RightUpLeg
  {
    OFFSET -8.2249 1.95398 -2.59336
    CHANNELS 3 Zrotation Xrotation Yrotation
    JOINT RightLeg
    {
      OFFSET 43.5653 0 0
      CHANNELS 3 Zrotation Xrotation Yrotation
      JOINT RightFoot
      {
        OFFSET 40.6238 0 0
        CHANNELS 3 Zrotation Xrotation Yrotation
        JOINT RightToeBase
        {
          OFFSET 12.7242 0 0
          CHANNELS 3 Zrotation Xrotation Yrotation
          End Site
          {
            OFFSET 0 0 0
          }
        }
      }
    }
  }
  JOINT Spine
  {
    OFFSET 0.165834 0.87714 6.61349
    CHANNELS 3 Zrotation Xrotation Yrotation
    JOINT Spine1
    {
      OFFSET 7.38963 1.71661e-005 0
      CHANNELS 3 Zrotation Xrotation Yrotation
      JOINT Spine2
      {
        OFFSET 11.9445 1.14441e-005 0
        CHANNELS 3 Zrotation Xrotation Yrotation
        JOINT Spine3
        {
          OFFSET 14.7254 4.19617e-005 0
          CHANNELS 3 Zrotation Xrotation Yrotation
          JOINT Spine4
          {
            OFFSET 10.9679 0 0
            CHANNELS 3 Zrotation Xrotation Yrotation
            JOINT RightShoulder
            {
              OFFSET 2.46616 -1.6653 3.69651
              CHANNELS 3 Zrotation Xrotation Yrotation
              JOINT RightArm
              {
                OFFSET 13.0012 0 0
                CHANNELS 3 Zrotation Xrotation Yrotation
                JOINT RightForeArm
                {
                  OFFSET 28.7848 1.52588e-005 0
                  CHANNELS 3 Zrotation Xrotation Yrotation
                  JOINT RightHand
                  {
                    OFFSET 26.5688 1.52588e-005 0
                    CHANNELS 3 Zrotation Xrotation Yrotation
                    End Site
                    {
                      OFFSET 0 0 0
                    }
                  }
                }
              }
            }
            JOINT LeftShoulder
            {
              OFFSET 2.38034 -1.29275 -3.7523
              CHANNELS 3 Zrotation Xrotation Yrotation
              JOINT LeftArm
              {
                OFFSET 16.3182 6.10351e-005 0
                CHANNELS 3 Zrotation Xrotation Yrotation
                JOINT LeftForeArm
                {
                  OFFSET 27.0901 0 0
                  CHANNELS 3 Zrotation Xrotation Yrotation
                  JOINT LeftHand
                  {
                    OFFSET 24.5451 1.52588e-005 0
                    CHANNELS 3 Zrotation Xrotation Yrotation
                    End Site
                    {
                      OFFSET 0 0 0
                    }
                  }
                }
              }
            }
            JOINT Neck
            {
              OFFSET 5.0226 -0.0266342 0
              CHANNELS 3 Zrotation Xrotation Yrotation
              JOINT Head
              {
                OFFSET 6.69364 2.86102e-005 0
                CHANNELS 3 Zrotation Xrotation Yrotation
                End Site
                {
                  OFFSET 0 0 0
                }
              }
            }
          }
        }
      }
    }
  }
}
MOTION
Frames:	10
Frame Time:	0.0416667
40.9805 100.954 -257.685 -136.955 -81.3315 -138.386 -178.311 -6.30099 90.585 -5.38663 -12.2248 1.50568 67.5032 4.1662 -1.34198 18.2971 -4.07453 6.50684 167.978 0.0908488 83.7739 -11.0821 -3.30927 -0.752484 65.7184 -2.61357 2.19425 23.796 -0.201169 1.13777 0.38484 7.50277 -89.9151 11.8662 0.805245 0.0832319 0.195601 0.808131 0.0477051 -22.342 0.743 0.321408 -2.32937 0.743001 0.321407 90.447 -29.5246 -106.049 44.1887 -10.52 -8.1492 5.43291 -26.0214 -11.4285 -27.0027 -0.127226 -7.27871 -84.9491 -44.5297 85.5674 -30.2304 20.2343 -19.395 -0.872018 7.85895 -3.77349 1.27696 -0.159489 -6.53483 3.08442 -0.996377 -1.86201 -3.65445 -0.673221 0.0456789 
40.847 100.971 -257.555 -141.111 -81.4886 -142.445 -177.97 -6.61809 90.9774 -5.4052 -11.2616 1.35066 67.6842 4.2238 -1.62409 19.077 -3.56591 5.81676 167.874 -0.667835 83.8513 -10.4468 -2.98546 -0.63334 65.1286 -2.43893 1.55736 25.0814 -0.295716 1.22614 0.283643 7.50353 -89.9822 11.8671 0.572476 -0.0256825 0.196284 0.570794 -0.0508728 -22.3398 0.553727 0.147558 -2.32715 0.553724 0.147552 89.3962 -29.4459 -108.178 43.4751 -11.304 -6.73583 6.91951 -20.7957 -11.4328 -25.0758 0.46607 -9.75099 -84.478 -46.5197 86.5914 -27.9246 21.2065 -18.9616 -1.55214 7.3234 -4.56944 0.986202 -0.149982 -6.38915 1.98712 -0.808787 -0.440525 -3.44676 -0.720631 -0.715342 
40.6491 100.979 -257.374 -144.271 -81.8573 -145.451 -177.526 -6.63074 91.5084 -5.43131 -10.0629 1.11937 67.6961 4.22466 -1.2791 18.7439 -3.51471 5.73697 168.059 -1.26356 84.1541 -9.79818 -2.1554 -0.674657 64.9598 -2.37285 1.73804 24.9402 -0.209379 1.02619 0.266148 7.52452 -89.9932 11.8252 0.53249 -0.0433182 0.154324 0.530068 -0.066714 -22.3817 0.520888 0.118726 -2.36904 0.520888 0.118725 89.5494 -29.7603 -107.746 42.9682 -11.3189 -6.87812 7.06898 -22.7827 -11.7892 -28.3921 0.212949 -8.25409 -84.3577 -46.3312 86.7543 -27.983 21.3799 -19.169 -1.7033 6.91951 -4.36082 1.19403 -0.157847 -6.4983 1.79113 -0.999043 -0.705025 -2.93487 -0.871392 -0.665414 
40.4938 100.98 -257.14 -145.122 -81.8334 -146.275 -177.418 -6.92267 91.6441 -5.30834 -9.82994 1.09961 67.7974 4.23025 -1.23344 19.3335 -3.57006 5.82675 168.08 -1.5296 84.2572 -9.95178 -2.09102 -0.682105 65.5212 -2.54908 1.23749 24.2492 -0.360789 1.47245 0.293339 7.54985 -90.0262 11.7746 0.571119 -0.112598 0.10373 0.565611 -0.137633 -22.4324 0.578557 0.064261 -2.41977 0.57855 0.0642508 89.535 -29.2571 -107.976 43.1827 -11.2958 -6.59668 6.55511 -22.2716 -12.5877 -28.3552 0.0666811 -7.54221 -84.455 -46.8489 86.6692 -27.6667 21.4076 -19.216 -1.75218 7.14174 -4.32235 -0.0400255 -0.144254 -7.12444 1.56367 -0.825227 -0.120553 -2.68553 -0.78877 -1.11299 
40.4854 100.987 -256.929 -145.023 -82.1236 -146.416 -177.915 -6.87477 91.1463 -5.06364 -10.1091 1.51655 67.6761 4.12925 -1.25681 19.2029 -3.67057 5.96629 167.976 -1.24743 84.0372 -10.1527 -1.91508 -0.666879 65.3844 -2.35594 1.4086 25.0136 -0.485955 1.70054 0.285959 7.51653 -89.9814 11.841 0.577437 -0.0245787 0.170176 0.575788 -0.0499793 -22.366 0.558119 0.150111 -2.35332 0.558128 0.150111 89.4347 -30.0578 -107.854 42.517 -10.8952 -6.63614 6.68255 -24.7671 -12.6098 -28.8148 -0.344857 -5.99365 -84.5469 -46.6838 86.5039 -28.0758 20.8774 -18.6235 -1.45555 7.54113 -4.23913 -0.0467343 -0.143453 -6.62946 1.22658 -0.838194 -0.427176 -2.53483 -0.75762 -1.13953 
40.3598 100.98 -256.75 -143.989 -82.4108 -145.444 -178.065 -6.76001 91.0627 -4.91052 -10.5417 1.6631 67.8921 4.18401 -1.39035 19.1334 -3.43627 5.63405 168.167 -1.1112 84.1836 -10.0278 -2.14699 -0.787449 65.261 -2.25102 0.824041 25.2057 -0.835736 2.54252 0.299038 7.51682 -89.9772 11.8404 0.60548 -0.0190331 0.169633 0.604049 -0.0456751 -22.3666 0.583204 0.163825 -2.35395 0.5832 0.163812 89.5127 -30.0879 -107.689 42.3693 -10.8673 -6.67235 6.35665 -25.5995 -13.3608 -28.519 -0.290664 -6.34594 -84.4897 -46.5802 86.5794 -28.001 21.1402 -18.6509 -1.60389 7.5081 -4.38327 -0.584903 -0.138335 -7.49072 1.65338 -0.662457 -0.544979 -2.3245 -0.567777 -0.810788 
40.2227 100.98 -256.558 -143.416 -82.5247 -144.952 -178.112 -6.76783 91.0263 -4.856 -10.4041 1.71972 67.8721 4.16274 -1.36103 19.4664 -3.68625 5.99478 168.091 -0.999486 84.141 -10.28 -1.73905 -0.708913 65.6321 -2.30798 1.36706 24.6484 -0.746691 2.36649 0.306389 7.51788 -89.9896 11.8384 0.614269 -0.0446734 0.167556 0.611713 -0.0716723 -22.3687 0.599296 0.142015 -2.35607 0.599294 0.142004 89.6073 -29.8543 -107.594 42.6336 -10.4109 -7.30397 6.85436 -25.3641 -11.6609 -29.2478 -0.149101 -6.90982 -84.4246 -47.3997 86.7876 -27.106 20.8411 -19.1154 -1.51951 8.13158 -4.11603 0.389756 -0.108192 -5.15834 1.79298 -0.605027 0.00269425 -1.82066 -0.597074 -1.27561 
40.004 100.984 -256.411 -141.16 -82.4443 -142.47 -177.916 -6.86497 91.4 -4.70035 -10.5515 1.72041 67.7931 4.09725 -1.3888 19.728 -3.54227 5.79534 168.349 -1.12341 84.5559 -10.093 -1.84853 -0.753135 65.5435 -2.3334 1.09529 25.0274 -1.06495 3.11751 0.298008 7.52252 -90.0413 11.8294 0.573263 -0.14329 0.158588 0.566407 -0.168381 -22.3776 0.589818 0.0356283 -2.36493 0.589827 0.0356357 89.6655 -29.5416 -107.603 42.511 -10.9797 -7.06786 6.99325 -24.645 -12.3689 -30.0811 -0.0744413 -7.08019 -84.1666 -48.0475 87.2667 -26.9049 20.5241 -19.078 -1.31223 8.0452 -4.43518 0.222381 -0.111105 -5.31594 2.60795 -0.487246 0.771989 -2.30962 -0.601252 -1.50524 
39.7864 100.949 -256.296 -136.66 -82.5921 -138.021 -177.84 -6.45598 91.5502 -4.73216 -10.8236 1.59265 67.9002 4.13834 -1.50568 19.5619 -3.61559 5.89665 168.397 -0.471439 84.6913 -10.5482 -2.08883 -0.647044 65.9809 -2.49294 1.01617 24.2357 -0.772016 2.46028 0.278807 7.51728 -90.0497 11.8398 0.531107 -0.155697 0.168921 0.523748 -0.17892 -22.3671 0.553343 0.0111314 -2.35446 0.55334 0.0111247 89.5662 -29.6086 -107.773 42.209 -10.8471 -7.72174 7.10963 -25.0389 -11.6457 -30.1996 0.107667 -7.89049 -83.8829 -48.4378 87.7509 -25.6414 21.4747 -19.9625 -2.12547 6.40979 -4.18785 0.0344999 -0.160091 -7.68057 3.50656 -0.412219 0.832092 -2.32623 -0.542354 -1.4548 
39.4171 100.933 -256.076 -134.194 -82.4445 -135.299 -177.13 -6.51782 92.3312 -4.89832 -10.4656 1.06492 67.9922 4.20065 -1.50744 19.831 -3.68941 6.00836 168.777 -0.651835 85.2291 -10.4424 -2.24507 -0.746264 66.0345 -2.59374 1.1379 24.9344 -0.248687 1.13049 0.299722 7.50173 -90.0865 11.8711 0.555321 -0.231895 0.20023 0.544586 -0.256122 -22.3359 0.599351 -0.054271 -2.3232 0.599344 -0.0542779 89.6774 -29.7261 -107.506 41.9816 -11.3572 -7.45145 7.55742 -24.7706 -12.133 -30.1029 -0.0527699 -7.17203 -84.2077 -48.5832 87.2685 -25.5859 21.4741 -19.563 -2.03228 6.2948 -4.79545 0.0719694 -0.165636 -7.90804 3.45833 -0.457067 0.729627 -2.3114 -0.569755 -1.1864 
